<?xml version="1.0" encoding="UTF-8" standalone="no"?>
<!-- Created with Inkscape (http://www.inkscape.org/) -->
<svg xmlns:rdf="http://www.w3.org/1999/02/22-rdf-syntax-ns#" xmlns="http://www.w3.org/2000/svg" xmlns:cc="http://creativecommons.org/ns#" xmlns:xlink="http://www.w3.org/1999/xlink" xmlns:dc="http://purl.org/dc/elements/1.1/" xmlns:svg="http://www.w3.org/2000/svg" xmlns:inkscape="http://www.inkscape.org/namespaces/inkscape" xmlns:sodipodi="http://sodipodi.sourceforge.net/DTD/sodipodi-0.dtd" xmlns:ns1="http://sozi.baierouge.fr" id="svg4280" viewBox="0 0 505.54 470.1" version="1.1" inkscape:version="0.91 r13725">
  <defs id="defs3">
    <filter id="filter4095" color-interpolation-filters="sRGB">
      <feGaussianBlur id="feGaussianBlur4097" stdDeviation="4.9915599"/>
    </filter>
    <linearGradient id="linearGradient3254" y2="1667.3" gradientUnits="userSpaceOnUse" x2="1167.1" y1="1159.9" x1="1107.9">
      <stop id="stop3250" style="stop-color:#ffffff" offset="0"/>
      <stop id="stop3252" style="stop-color:#ffffff;stop-opacity:0" offset="1"/>
    </linearGradient>
    <linearGradient id="linearGradient3279" y2="1638.6" xlink:href="#linearGradient3261" gradientUnits="userSpaceOnUse" x2="1072" gradientTransform="translate(-44.367 -2.5353)" y1="1559.7" x1="1071.1"/>
    <linearGradient id="linearGradient3261">
      <stop id="stop3263" style="stop-color:#ffffff" offset="0"/>
      <stop id="stop3265" style="stop-color:#ffffff;stop-opacity:0" offset="1"/>
    </linearGradient>
    <linearGradient id="linearGradient3283" y2="1638.6" xlink:href="#linearGradient3261" gradientUnits="userSpaceOnUse" x2="1072" gradientTransform="matrix(.81242 -.58307 .58307 .81242 -831.59 993.7)" y1="1559.7" x1="1071.1"/>
    <linearGradient id="linearGradient3287" y2="1638.6" xlink:href="#linearGradient3261" gradientUnits="userSpaceOnUse" x2="1072" gradientTransform="matrix(.76216 -.64739 .64739 .76216 -948.06 1185.7)" y1="1559.7" x1="1071.1"/>
    <linearGradient id="linearGradient3291" y2="1638.6" xlink:href="#linearGradient3261" gradientUnits="userSpaceOnUse" x2="1072" gradientTransform="matrix(.76216 -.64739 .64739 .76216 -966.88 1125.7)" y1="1559.7" x1="1071.1"/>
    <linearGradient id="linearGradient3295" y2="1638.6" xlink:href="#linearGradient3261" gradientUnits="userSpaceOnUse" x2="1072" gradientTransform="matrix(.88306 -.46925 .46925 .88306 -748.57 701.12)" y1="1559.7" x1="1071.1"/>
    <linearGradient id="linearGradient3301" y2="1638.6" xlink:href="#linearGradient3261" gradientUnits="userSpaceOnUse" x2="1072" gradientTransform="translate(-10.306 52.143)" y1="1559.7" x1="1071.1"/>
  </defs>
  <g id="layer1" transform="translate(-85.146 -82.079)">
    <g id="g4210" style="fill:#000000" transform="matrix(.67758 0 0 .67758 -443.34 -764.13)">
      <path id="path4089" style="filter:url(#filter4095);fill:#000000" d="m1142.8 1263.8c-2.634 0.1244-5.2547 2.1342-7.2813 6.0625-52.483 166.77-137.31 345.87-247.87 428.88-6.8773 13.583 2.6026 15.84 10.25 15.812 169.1 57.371 317.8 26.062 489 0.188 9.4619 0.01 17.724-4.2234 11.344-15.781-26.156-177.06-85.571-281.61-248-429.97-2.1373-3.5476-4.8035-5.3119-7.4375-5.1875zm-0.3239 91.605c2.2184 1.4261 4.018 3.4811 6.0426 5.6452 165.11 113.12 181.63 296.51 185.45 305.21 1.1888 7.9798-1.0457 8.5227-6.3125 11.125-131.67 48.755-298.85 44.911-352.55 3.9545-1.1746 0.1507-10.815-4.4692-11.816-9.1333 107.86-77.544 127.62-191.51 171.26-311.53 0 0 1.3256-7.1759 4.2816-6.8548 0 0 1.743 0.3167 3.6445 1.5844z" transform="matrix(.95533 0 0 .99750 39.009 17.074)"/>
      <path id="path3095" style="fill:#ff0000" d="m1142.8 1263.8c-2.634 0.1244-5.2547 2.1342-7.2813 6.0625-52.483 166.77-137.31 345.87-247.87 428.88-6.8773 13.583 2.6026 15.84 10.25 15.812 169.1 57.371 317.8 26.062 489 0.188 9.4619 0.01 17.724-4.2234 11.344-15.781-26.156-177.06-85.571-281.61-248-429.97-2.1373-3.5476-4.8035-5.3119-7.4375-5.1875zm-0.3239 91.605c2.2184 1.4261 4.018 3.4811 6.0426 5.6452 165.11 113.12 181.63 296.51 185.45 305.21 1.1888 7.9798-1.0457 8.5227-6.3125 11.125-131.67 48.755-298.85 44.911-352.55 3.9545-1.1746 0.1507-10.815-4.4692-11.816-9.1333 107.86-77.544 127.62-191.51 171.26-311.53 0 0 1.3256-7.1759 4.2816-6.8548 0 0 1.743 0.3167 3.6445 1.5844z"/>
      <path id="path3226" style="fill:url(#linearGradient3254)" d="m1145 1270.5c0.072-0.058-0.2987 0.4135 0 0zm0.625 4.2187-0.3125 0.9063c-4.4981 17.324-11.486 34.144-17.062 51.281-15.23 42.913-32.102 85.488-51.344 126.91 3.4573 4.7379 7.2738 9.6089 11.562 14.5 14.342-40.286 25.856-81.732 42-121.28 2.2563-2.8517 5.8393-5.1168 9.6563-5.0626 12.563 1.0672 19.13 13.666 29.719 18.813 71.973 53.076 124.44 129.74 153.66 214.19 14.621 2.2134 27.86 3.5054 39.75 4.1563-15.848-49.276-37.937-96.497-67.719-138.88-42.169-61.855-95.45-114.51-149.91-165.53z"/>
      <path id="rect3067" style="fill:#000000" d="m350.74 1869.9h304.7c5.4614 0 9.858 4.3967 9.858 9.8581s-4.3967 9.858-9.858 9.858h-304.7c-5.4614 0-9.858-4.3966-9.858-9.858s4.3967-9.8581 9.858-9.8581z" transform="rotate(-22.264)"/>
      <g id="g3165" style="fill:#000000" transform="translate(1.6414 1.7927)">
        <path id="rect3075" style="fill:#000000" d="m306.7 2119.5h34.181c3.8573 0 6.9627 3.1053 6.9627 6.9627v1.2659c0 3.8573-3.1054 6.9627-6.9627 6.9627h-34.181c-3.8573 0-6.9627-3.1054-6.9627-6.9627v-1.2659c0-3.8574 3.1054-6.9627 6.9627-6.9627zm-113.54-66.16 30.866 17.427c3.3589 1.8965 4.5363 6.1273 2.6398 9.4863-1.8965 3.3589-6.1274 4.5363-9.4863 2.6398l-30.866-17.427c-3.3589-1.8964-4.5363-6.1274-2.6398-9.4863 1.8965-3.359 6.1274-4.5362 9.4863-2.6398zm147.56-25.773 8.4214-1.7801c6.8146-1.4405 11.993 2.9987 11.61 9.9533l-4.4021 80.029c-0.38255 6.9546-6.1766 13.713-12.991 15.154l-8.4214 1.7802c-6.8146 1.4405-11.993-2.9987-11.61-9.9534l4.4021-80.029c0.38255-6.9547 6.1766-13.713 12.991-15.154zm22.249-84.883 10.941 3.1783c5.388 1.5652 8.4655 7.1628 6.9004 12.551l-18.363 63.216c-1.5651 5.388-7.1627 8.4654-12.551 6.9003l-10.941-3.1783c-5.388-1.5651-8.4655-7.1626-6.9004-12.551l18.363-63.216c1.5651-5.3879 7.1627-8.4655 12.551-6.9004zm-116.9 62.021 9.9214 5.6017c4.8857 2.7585 6.5983 8.9125 3.8397 13.798l-28.631 50.709c-2.7585 4.8857-8.9126 6.5982-13.798 3.8397l-9.9214-5.6017c-4.8857-2.7585-6.5983-8.9125-3.8397-13.798l28.631-50.709c2.7585-4.8857 8.9126-6.5982 13.798-3.8397zm65.688-64.45 8.0703 8.0426c3.9741 3.9604 3.9851 10.348 0.0246 14.322l-52.723 52.905c-3.9605 3.9742-10.348 3.9852-14.322 0.025l-8.0703-8.0425c-3.9742-3.9606-3.9852-10.348-0.0246-14.323l52.723-52.905c3.9605-3.9742 10.348-3.9852 14.323-0.025zm-38.853-44.884c1.3949 5.4344-1.8571 10.932-7.2916 12.328l-55.179 14.163c-5.4345 1.3949-10.933-1.8572-12.327-7.2916-1.3949-5.4345 1.8571-10.933 7.2916-12.328l55.179-14.163c5.4345-1.395 10.933 1.8571 12.328 7.2916zm25.754-45.606 3.3072 1.8672c4.8856 2.7585 6.5982 8.9125 3.8397 13.798l-16.805 29.764c-2.7585 4.8857-8.9125 6.5982-13.798 3.8397l-3.3072-1.8672c-4.8857-2.7585-6.5982-8.9125-3.8397-13.798l16.805-29.764c2.7585-4.8857 8.9125-6.5982 13.798-3.8397zm146.89 43.68c4.8857 2.7586 6.5983 8.9126 3.8397 13.798l-19.917 35.276c-2.7585 4.8857-8.9125 6.5982-13.798 3.8397-4.8857-2.7586-6.5982-8.9125-3.8397-13.798l19.917-35.276c2.7585-4.8857 8.9125-6.5983 13.798-3.8398zm-47.027-45.451 50.709 28.631c4.8858 2.7585 6.5983 8.9126 3.8398 13.798-2.7585 4.8858-8.9126 6.5983-13.798 3.8398l-50.709-28.631c-4.8857-2.7586-6.5983-8.9126-3.8397-13.798 2.7585-4.8857 8.9125-6.5982 13.798-3.8397zm-67.566-14.079 27.851-0.01c14.728 0 26.589 11.848 26.593 26.576l0.0211 67.095c0.005 14.728-11.848 26.589-26.576 26.593l-27.851 0.01c-14.728 0-26.589-11.848-26.593-26.576l-0.0211-67.095c-0.005-14.728 11.848-26.589 26.576-26.593zm42.301-13.27c-8.5936 15.221-28.146 20.454-43.671 11.688-15.525-8.7655-21.144-28.21-12.55-43.431 8.5936-15.221 28.146-20.453 43.671-11.688 15.525 8.7655 21.144 28.21 12.55 43.431z" transform="rotate(-29.449)"/>
        <path id="path3192" style="fill:#000000" d="m1186.9 1373.6c-20.374-0.1387-35.535 26.358-23.312 43.25 8.2135 12.566 25.277 14.714 39.062 13.094-7.1601 5.015-15.407 10.001-20.25 17.406-5.27 10.978-0.068 23.438 7.0313 32.187 11.49 19.925 21.349 41.435 35.937 59.031-9.487 0.9097-11.371 12.234-12.406 19.875-5.4285 20.803-13.442 41.056-15.969 62.531 1.7438 2.4091 4.1181 4.2383 6.1876 6.2187-7.3567 0.1404-11.759 8.0367-9.9522 14.684 0.9495 20.813-0.2406 41.657 0.6709 62.472 7.1981-2.45 17.899 2.1416 22.375-6 2.6083-20.512 1.0938-41.744 0.7187-62.531-3.7303-4.8817 2.7828-9.8341 3.1322-14.916 5.2689-18.342 10.41-36.732 15.618-55.084 1.3342-6.75 3.83-14.565 2.8438-21-2.4683-1.6306-4.7185-3.4981-7.375-4.8125 12.989-0.1362 22.938-10.066 34.5-14.281 3.9981-0.8704 2.8634 5.937 3.875 8.4374 5.575 19.972 7.2226 41.513 16.875 60.25 5.8603-3.1149 15.48-0.3665 18.594-7.6562 1.0501-14.668-7.1862-27.834-8.4093-42.294-2.2428-10.472-3.145-23.218-11.966-30.331-1.7138-0.9844-6.1219 0.9874-3.6876-2.0312 5.6066-14.078-3.9061-28.335-11.687-39.406-10.565-16.32-16.137-37.147-32.125-49.125-9.0518-6.0374-21.915 0.4011-29.219 3.1563 2.1299-3.4756 1.027-7.9229 4.2812-11 4.4044-6.4335 5.8429-14.552 2.75-21.781-3.795-11.789-15.45-20.992-28.094-20.344zm124.44 42.781c-19.553 2.405-39.698-0.9511-59.125 1.5625-6.1013 3.2605-1.552 14.593 5.1562 11.875 19.6-0.6223 39.225 0.5624 58.813-0.5625-6.7556 13.962-1.8983 29.964-3.9376 44.562-1.9399 5.6793 2.9565 14.923 9.625 11.688 6.5922-5.1386 1.3903-14.627 3.1414-21.497 1.4392-12.633 0.2876-25.831-5.3288-37.159 2.1671-5.3767-2.9925-10.718-8.3438-10.469zm-140.5 51.094c-8.1898 0.3844-9.3725 10.591-7.4375 16.719 0.4573 9.9855-3.3375 22.551 4.25 30.625 7.0092 2.8345 14.705-5.433 11.781-12.188-0.018-11.356 1.2438-22.863-1.4688-34-2.3996-0.3436-4.6744-1.3279-7.125-1.1562zm-7.75 49.406c-18.447 10.442-31.415 28.665-47.281 42.469-4.0477 5.8777 5.8205 13.412 10.219 7.625 13.36-15.593 33.145-26.466 42.188-45.375-0.2776-2.5291-2.5458-4.7414-5.125-4.7188zm141.12 75.219c-4.1873 6.6634-14.447 11.85-11.781 21 7.0008 19.278 18.497 36.475 26.533 55.278 4.2578 8.6893 8.6009 17.337 12.842 26.034 15.102-1.8567 21.216-22.74 11.254-33.618-13.316-22.987-20.734-49.424-37.879-70.038l-0.5849 0.8112-0.3839 0.5326z"/>
        <path id="path3216" style="fill:#000000" d="m1186.9 1373.6c-20.374-0.1387-35.535 26.358-23.312 43.25 8.2135 12.566 25.277 14.714 39.062 13.094-7.1601 5.015-15.407 10.001-20.25 17.406-5.27 10.978-0.068 23.438 7.0313 32.187 11.49 19.925 21.349 41.435 35.937 59.031-9.487 0.9097-11.371 12.234-12.406 19.875-5.4285 20.803-13.442 41.056-15.969 62.531 1.7438 2.4091 4.1181 4.2383 6.1876 6.2187-7.3567 0.1404-11.759 8.0367-9.9522 14.684 0.9495 20.813-0.2406 41.657 0.6709 62.472 7.1981-2.45 17.899 2.1416 22.375-6 2.6083-20.512 1.0938-41.744 0.7187-62.531-3.7303-4.8817 2.7828-9.8341 3.1322-14.916 5.2689-18.342 10.41-36.732 15.618-55.084 1.3342-6.75 3.83-14.565 2.8438-21-2.4683-1.6306-4.7185-3.4981-7.375-4.8125 12.989-0.1362 22.938-10.066 34.5-14.281 3.9981-0.8704 2.8634 5.937 3.875 8.4374 5.575 19.972 7.2226 41.513 16.875 60.25 5.8603-3.1149 15.48-0.3665 18.594-7.6562 1.0501-14.668-7.1862-27.834-8.4093-42.294-2.2428-10.472-3.145-23.218-11.966-30.331-1.7138-0.9844-6.1219 0.9874-3.6876-2.0312 5.6066-14.078-3.9061-28.335-11.687-39.406-10.565-16.32-16.137-37.147-32.125-49.125-9.0518-6.0374-21.915 0.4011-29.219 3.1563 2.1299-3.4756 1.027-7.9229 4.2812-11 4.4044-6.4335 5.8429-14.552 2.75-21.781-3.795-11.789-15.45-20.992-28.094-20.344zm124.44 42.781c-19.553 2.405-39.698-0.9511-59.125 1.5625-6.1013 3.2605-1.552 14.593 5.1562 11.875 19.6-0.6223 39.225 0.5624 58.813-0.5625-6.7556 13.962-1.8983 29.964-3.9376 44.562-1.9399 5.6793 2.9565 14.923 9.625 11.688 6.5922-5.1386 1.3903-14.627 3.1414-21.497 1.4392-12.633 0.2876-25.831-5.3288-37.159 2.1671-5.3767-2.9925-10.718-8.3438-10.469zm-140.5 51.094c-8.1898 0.3844-9.3725 10.591-7.4375 16.719 0.4573 9.9855-3.3375 22.551 4.25 30.625 7.0092 2.8345 14.705-5.433 11.781-12.188-0.018-11.356 1.2438-22.863-1.4688-34-2.3996-0.3436-4.6744-1.3279-7.125-1.1562zm-7.75 49.406c-18.447 10.442-31.415 28.665-47.281 42.469-4.0477 5.8777 5.8205 13.412 10.219 7.625 13.36-15.593 33.145-26.466 42.188-45.375-0.2776-2.5291-2.5458-4.7414-5.125-4.7188zm141.12 75.219c-4.1873 6.6634-14.447 11.85-11.781 21 7.0008 19.278 18.497 36.475 26.533 55.278 4.2578 8.6893 8.6009 17.337 12.842 26.034 15.102-1.8567 21.216-22.74 11.254-33.618-13.316-22.987-20.734-49.424-37.879-70.038l-0.5849 0.8112-0.3839 0.5326z"/>
      </g>
      <path id="rect3131" style="stroke:#ffffff;stroke-width:.62046;fill:#000000" d="m988.22 1595.5h50.268c2.8675 0 5.1761 2.3085 5.1761 5.1761v42.482c0 2.8676-2.3086 5.1761-5.1761 5.1761h-50.268c-2.8676 0-5.1761-2.3085-5.1761-5.1761v-42.482c0-2.8676 2.3086-5.1761 5.1761-5.1761z"/>
      <path id="rect3133" style="stroke:#ffffff;stroke-width:.62046;fill:#000000" d="m-301.95 1909.2h50.268c2.8676 0 5.1761 2.3086 5.1761 5.1762v42.482c0 2.8676-2.3086 5.1761-5.1761 5.1761h-50.268c-2.8676 0-5.1761-2.3085-5.1761-5.1761v-42.482c0-2.8676 2.3085-5.1762 5.1761-5.1762z" transform="rotate(-37.998)"/>
      <path id="rect3135" style="stroke:#ffffff;stroke-width:.62046;fill:#000000" d="m34.536 1865h50.268c2.8676 0 5.1761 2.3085 5.1761 5.1761v42.482c0 2.8676-2.3085 5.1761-5.1761 5.1761h-50.268c-2.8676 0-5.1761-2.3085-5.1761-5.1761v-42.482c0-2.8676 2.3085-5.1761 5.1761-5.1761z" transform="rotate(-28.212)"/>
      <path id="rect3137" style="stroke:#ffffff;stroke-width:.62046;fill:#000000" d="m-463.69 1821.4h50.268c2.8676 0 5.1761 2.3086 5.1761 5.1762v42.482c0 2.8676-2.3086 5.1761-5.1761 5.1761h-50.268c-2.8676 0-5.1761-2.3085-5.1761-5.1761v-42.482c0-2.8676 2.3086-5.1762 5.1761-5.1762z" transform="matrix(.75114 -.66014 .66014 .75114 0 0)"/>
      <path id="rect3139" style="stroke:#ffffff;stroke-width:.62046;fill:#000000" d="m-495.64 1877.8h50.268c2.8676 0 5.1761 2.3085 5.1761 5.1761v42.482c0 2.8676-2.3086 5.1762-5.1761 5.1762h-50.268c-2.8676 0-5.1761-2.3086-5.1761-5.1762v-42.482c0-2.8676 2.3086-5.1761 5.1761-5.1761z" transform="rotate(-41.506)"/>
      <path id="rect3141" style="fill:#000000" d="m-1073.7 1634.8h17.061c0.9733 0 1.7568 0.7835 1.7568 1.7567v14.418c0 0.9732-0.7835 1.7567-1.7568 1.7567h-17.061c-0.9732 0-1.7568-0.7835-1.7568-1.7567v-14.418c0-0.9732 0.7836-1.7567 1.7568-1.7567z" transform="rotate(-57.9)"/>
      <path id="rect3143" style="fill:#000000" d="m-65.981 1890.8h17.061c0.97324 0 1.7568 0.7835 1.7568 1.7567v14.418c0 0.9733-0.78351 1.7568-1.7568 1.7568h-17.061c-0.97324 0-1.7568-0.7835-1.7568-1.7568v-14.418c0-0.9732 0.78351-1.7567 1.7568-1.7567z" transform="rotate(-28.212)"/>
      <path id="rect3145" style="fill:#000000" d="m-185.15 2044.5h17.061c0.97324 0 1.7568 0.7836 1.7568 1.7568v14.418c0 0.9732-0.78351 1.7567-1.7568 1.7567h-17.061c-0.97324 0-1.7568-0.7835-1.7568-1.7567v-14.418c0-0.9732 0.78351-1.7568 1.7568-1.7568z" transform="rotate(-28.212)"/>
      <path id="rect3147" style="fill:#000000" d="m-937.06 1776.5h17.061c0.97324 0 1.7568 0.7835 1.7568 1.7567v14.418c0 0.9732-0.78351 1.7568-1.7568 1.7568h-17.061c-0.97324 0-1.7568-0.7836-1.7568-1.7568v-14.418c0-0.9732 0.78351-1.7567 1.7568-1.7567z" transform="matrix(.59428 -.80425 .80425 .59428 0 0)"/>
      <path id="rect3149" style="fill:#000000" d="m-1171.4 1609.5h17.061c0.9733 0 1.7568 0.7835 1.7568 1.7568v14.418c0 0.9732-0.7835 1.7567-1.7568 1.7567h-17.061c-0.9733 0-1.7568-0.7835-1.7568-1.7567v-14.418c0-0.9733 0.7835-1.7568 1.7568-1.7568z" transform="rotate(-60.279)"/>
      <path id="rect3151" style="fill:#000000" d="m-159.94 2003h17.061c0.97325 0 1.7568 0.7835 1.7568 1.7567v14.418c0 0.9732-0.78351 1.7568-1.7568 1.7568h-17.061c-0.97324 0-1.7568-0.7836-1.7568-1.7568v-14.418c0-0.9732 0.78351-1.7567 1.7568-1.7567z" transform="rotate(-28.212)"/>
      <path id="rect3153" style="fill:#000000" d="m-489.64 1936.4h17.061c0.97324 0 1.7568 0.7835 1.7568 1.7567v14.418c0 0.9732-0.78352 1.7568-1.7568 1.7568h-17.061c-0.97324 0-1.7568-0.7836-1.7568-1.7568v-14.418c0-0.9732 0.78351-1.7567 1.7568-1.7567z" transform="rotate(-42.134)"/>
      <path id="rect3155" style="fill:#000000" d="m-652.95 1819.2h17.061c0.97324 0 1.7568 0.7835 1.7568 1.7567v14.418c0 0.9733-0.78351 1.7568-1.7568 1.7568h-17.061c-0.97324 0-1.7568-0.7835-1.7568-1.7568v-14.418c0-0.9732 0.78351-1.7567 1.7568-1.7567z" transform="matrix(.70128 -.71288 .71288 .70128 0 0)"/>
      <path id="rect3157" style="fill:#000000" d="m-1073.3 1735.4h17.061c0.9733 0 1.7568 0.7835 1.7568 1.7568v14.418c0 0.9733-0.7835 1.7568-1.7568 1.7568h-17.061c-0.9733 0-1.7568-0.7835-1.7568-1.7568v-14.418c0-0.9733 0.7835-1.7568 1.7568-1.7568z" transform="rotate(-55.763)"/>
      <path id="rect3159" style="fill:#000000" d="m-1698.1 1018.1h17.061c0.9732 0 1.7567 0.7835 1.7567 1.7567v14.418c0 0.9732-0.7835 1.7568-1.7567 1.7568h-17.061c-0.9732 0-1.7567-0.7836-1.7567-1.7568v-14.418c0-0.9732 0.7835-1.7567 1.7567-1.7567z" transform="matrix(.093759 -.99559 .99559 .093759 0 0)"/>
      <path id="rect3161" style="fill:#000000" d="m-493.35 1940.1h17.061c0.97324 0 1.7568 0.7835 1.7568 1.7567v14.418c0 0.9732-0.78351 1.7567-1.7568 1.7567h-17.061c-0.97324 0-1.7568-0.7835-1.7568-1.7567v-14.418c0-0.9732 0.78351-1.7567 1.7568-1.7567z" transform="rotate(-41.12)"/>
      <path id="rect3163" style="fill:#000000" d="m-1157.3 1650.4h17.061c0.9732 0 1.7567 0.7835 1.7567 1.7568v14.418c0 0.9733-0.7835 1.7568-1.7567 1.7568h-17.061c-0.9732 0-1.7567-0.7835-1.7567-1.7568v-14.418c0-0.9733 0.7835-1.7568 1.7567-1.7568z" transform="rotate(-59.811)"/>
      <path id="rect3256" style="fill:url(#linearGradient3279)" d="m1034.9 1598.1c-16.026 1.1349-32.458-1.0047-48.25 0.875-3.4711 4.8031 2.2887 9.8344 5.2813 13.062 8.9421 8.7422 22.414 10.395 34.329 7.9362 4.6282-0.7581 10.749-0.636 14.515-2.3736-0.5494-6.2109 1.9924-13.369-1.1562-18.906-1.4412-0.7443-3.1396-0.7133-4.7188-0.5937z"/>
      <path id="path3281" style="fill:url(#linearGradient3283)" d="m978.51 1664.8c-12.358 10.266-26.956 18.109-38.689 28.844-0.0194 5.926 7.5936 6.6552 11.907 7.5328 12.362 1.8884 24.27-4.624 32.517-13.569 3.3181-3.3145 8.3619-6.7841 10.408-10.392-4.0677-4.7255-6.1765-12.023-11.963-14.686-1.6048 0.2357-2.9665 1.2511-4.1798 2.2691z"/>
      <path id="path3285" style="fill:url(#linearGradient3287)" d="m910.73 1706.9c-11.48 11.24-25.389 20.248-36.208 31.904 0.46398 5.9078 8.1111 6.0137 12.482 6.5365 12.475 0.8739 23.812-6.588 31.302-16.176 3.0367-3.5741 7.7808-7.4435 9.526-11.206-4.4396-4.378-7.1365-11.479-13.121-13.661-1.5802 0.3658-2.8546 1.4889-3.9808 2.6024z"/>
      <path id="path3289" style="fill:url(#linearGradient3291)" d="m891.91 1646.9c-11.48 11.24-25.389 20.248-36.208 31.904 0.46398 5.9078 8.1111 6.0137 12.482 6.5365 12.475 0.8739 23.812-6.588 31.302-16.176 3.0367-3.5741 7.7808-7.4435 9.526-11.206-4.4396-4.378-7.1365-11.479-13.121-13.661-1.5802 0.3658-2.8546 1.4889-3.9808 2.6024z"/>
      <path id="path3293" style="fill:url(#linearGradient3295)" d="m955.59 1608.1c-13.619 8.5226-29.134 14.344-42.197 23.414-0.81129 5.8702 6.6359 7.6104 10.793 9.0566 11.999 3.5238 24.67-1.3385 34.038-9.1008 3.7314-2.8412 9.1937-5.6055 11.704-8.9072-3.3996-5.2268-4.5141-12.741-9.8928-16.153-1.6219 0.019-3.1071 0.8434-4.4456 1.69z"/>
      <path id="rect3297" style="stroke:#ffffff;stroke-width:.62046;fill:#000000" d="m1022.3 1650.2h50.268c2.8676 0 5.1761 2.3086 5.1761 5.1761v42.482c0 2.8675-2.3085 5.1761-5.1761 5.1761h-50.268c-2.8675 0-5.1761-2.3086-5.1761-5.1761v-42.482c0-2.8675 2.3086-5.1761 5.1761-5.1761z"/>
      <path id="path3299" style="fill:url(#linearGradient3301)" d="m1069 1652.7c-16.026 1.1349-32.458-1.0047-48.25 0.875-3.4711 4.8031 2.2887 9.8344 5.2813 13.062 8.9421 8.7422 22.414 10.395 34.329 7.9362 4.6282-0.7581 10.749-0.636 14.515-2.3736-0.5494-6.2109 1.9924-13.369-1.1562-18.906-1.4412-0.7443-3.1396-0.7133-4.7188-0.5937z"/>
      <path id="path4144" d="m1086.9 1802.8c2.0397 5.9222 1.6564 10.545-1.1499 13.868-2.5832 3.0807-6.9919 4.87-13.226 5.3677-6.2344 0.4978-11.613-0.4166-16.136-2.7432-5.0583-2.6576-8.5949-6.9115-10.61-12.762l-8.4286-24.471 14.617-1.1669 8.0345 23.327c0.6634 1.926 1.7333 3.4459 3.2097 4.5597 1.4764 1.1137 3.1853 1.5931 5.1267 1.4381 2.0166-0.161 3.3096-0.9735 3.8789-2.4374 0.5451-1.3127 0.4674-2.9864-0.2334-5.0212l-7.8655-22.836 14.504-1.158z"/>
      <path id="path4146" d="m1145.6 1815.5-13.552 1.0819-23.764-19.216 7.4685 20.516-14.672 1.1713-14.098-40.931 13.607-1.0863 23.841 19.266-7.5439-20.567 14.615-1.1668z"/>
      <path id="path4148" d="m1160.9 1772.3c6.3847-0.5098 12.247 0.973 17.587 4.4483 5.3399 3.4752 9.0735 8.301 11.201 14.477 2.0524 5.959 1.8688 10.967-0.5507 15.024-2.4195 4.0573-6.6719 6.3288-12.757 6.8146l-21.561 1.7213-14.079-40.876zm13.947 19.943c-1.0136-2.9429-2.5864-5.2253-4.7184-6.8472-2.2925-1.7584-4.9324-2.5184-7.9197-2.2799l-3.1924 0.2549 6.7953 19.73 3.3052-0.2639c3.0613-0.2444 5.0568-1.3556 5.9863-3.3337 0.8679-1.8238 0.7825-4.2438-0.2563-7.2597z"/>
      <path id="path4150" d="m1233.8 1808.4-29.849 2.383-14.098-40.931 29.736-2.374 3.2287 9.374-15.119 1.2071 2.1592 6.2688 13.663-1.0908 3.2097 9.3191-13.663 1.0909 2.2903 6.6496 15.232-1.2161z"/>
      <path id="path4152" d="m1284.4 1804.4-15.736 1.2563c-4.5273-5.1266-6.8468-7.7414-6.9582-7.8442-4.0039-4.2729-6.6095-6.3794-7.8169-6.3195l-3.5679-1.3403 5.688 16.514-14.561 1.1625-14.098-40.931 22.96-1.833c4.4798-0.3577 8.3645 0.2283 11.654 1.7577 3.8738 1.7815 6.5178 4.7252 7.9321 8.8312 1.6769 4.8689 0.2145 8.42-4.3871 10.654 1.408 0.5223 4.7931 3.5002 10.156 8.9339 2.8931 3.0537 5.8048 6.1065 8.7348 9.1584zm-28.408-26.684c-1.1137-3.2334-3.7612-4.6831-7.9425-4.3493l-3.4162 0.2727 3.3788 9.8099 3.3598-0.2683c1.7921-0.143 3.1168-0.6407 3.974-1.493 1.0063-0.977 1.2216-2.301 0.6461-3.972z"/>
      <path id="path4154" d="m903.41 1911.4c-4.313 2.8082-9.2244 4.4642-14.734 4.9679-8.0598 0.737-15.299-0.9691-21.717-5.118-6.5949-4.2692-11.04-10.283-13.335-18.041-2.3346-7.8924-1.5077-14.502 2.4807-19.831 3.8602-5.1346 9.8883-8.0765 18.084-8.826 4.5079-0.4121 9.7079 0.092 15.6 1.5126l4.5046 15.228c-4.78-1.9308-9.1509-2.7152-13.113-2.353-3.8256 0.3498-6.601 1.5605-8.326 3.6316-1.8815 2.1745-2.2845 5.0794-1.209 8.715 1.0626 3.5922 3.1639 6.269 6.3038 8.0302 2.8599 1.6062 6.2021 2.2345 10.026 1.8847 3.6436-0.333 7.3324-1.8542 11.067-4.5636z"/>
      <path id="path4156" d="m960.74 1882.9c2.387 8.0694 1.7565 14.673-1.8916 19.81-3.6482 5.1376-9.6383 8.0873-17.97 8.8491-8.2418 0.7536-15.559-0.8995-21.952-4.959-6.5807-4.2259-11.045-10.306-13.392-18.242-2.3738-8.0247-1.6444-14.648 2.1884-19.871 3.7042-5.0299 9.7223-7.9259 18.054-8.6878 7.968-0.7285 15.184 0.9797 21.648 5.1244 6.5952 4.2704 11.034 10.262 13.316 17.976zm-17.974 1.8476c-0.91782-3.1025-2.4263-5.5144-4.5254-7.236-2.3333-1.8808-5.0479-2.6798-8.144-2.3967-3.1878 0.2915-5.3156 1.556-6.3834 3.7935-0.99871 2.0036-1.0258 4.6019-0.0811 7.795 0.91814 3.1038 2.4273 5.5157 4.5275 7.2358 2.2415 1.8893 4.9103 2.6923 8.0064 2.4092 3.2795-0.2998 5.4663-1.5238 6.5606-3.6723 0.99688-2.0046 1.01-4.6474 0.0395-7.9285z"/>
      <path id="path4158" d="m1031.7 1902.4-16.529 1.5113-27.769-23.212 7.8942 25.029-17.895 1.6361-14.774-49.945 16.596-1.5174 27.86 23.272-7.9828-25.09 17.826-1.6298z"/>
      <path id="path4160" d="m1075 1882.3c1.5475 5.2307 0.7178 9.5408-2.4882 12.93-2.8762 3.0866-7.0914 4.8839-12.646 5.3918-7.1954 0.6578-13.887-0.4605-20.073-3.355l-1.9645-13.277c6.2277 3.3466 11.528 4.8201 15.899 4.4202 1.4119-0.1289 2.5401-0.5052 3.3846-1.1286 1.0907-0.7375 1.4458-1.7489 1.0657-3.0343-0.3803-1.2854-2.5948-2.4488-6.6437-3.4905-5.6061-1.3996-9.4866-2.6609-11.641-3.784-4.4175-2.2835-7.2691-5.5977-8.5542-9.9423-1.5478-5.2321-0.6727-9.5468 2.6252-12.945 2.9782-3.05 7.2453-4.8291 12.801-5.3372 5.282-0.4828 10.971 0.568 17.068 3.1525l1.5612 12.63c-5.9211-2.7825-10.475-4.0281-13.661-3.7368-3.0516 0.279-4.2759 1.438-3.6726 3.477 0.4591 1.5519 2.7071 2.8264 6.7441 3.8231 5.6379 1.3522 9.4527 2.5516 11.445 3.5977 4.4305 2.3269 7.3476 5.8629 8.7512 10.608z"/>
      <path id="path4162" d="m1118.9 1856.8-13.251 1.2116 10.82 36.576-17.69 1.6175-10.82-36.576-13.319 1.2178-3.9546-13.369 44.261-4.0467z"/>
      <path id="path4164" d="m1190.2 1887.9-19.193 1.7548c-5.2061-6.2178-7.8739-9.3888-8.0034-9.5132-4.6192-5.1792-7.6639-7.7237-9.1345-7.6339l-4.2583-1.5928 5.9611 20.151-17.759 1.6238-14.774-49.945 28.004-2.5606c5.4639-0.4995 10.15 0.1654 14.06 1.9934 4.6045 2.1289 7.6478 5.6986 9.13 10.709 1.7574 5.9411-0.2238 10.311-5.9437 13.11 1.6806 0.6204 5.6225 4.2218 11.826 10.804 3.3397 3.7008 6.7019 7.4004 10.087 11.099zm-32.983-32.297c-1.1671-3.9455-4.3007-5.685-9.4006-5.2187l-4.1667 0.381 3.541 11.97 4.0979-0.3747c2.1859-0.1998 3.8242-0.8276 4.9149-1.8835 1.2788-1.2104 1.6167-2.8353 1.0135-4.8743z"/>
      <path id="path4166" d="m1239.7 1862.2c2.1377 7.2265 1.4058 12.894-2.1954 17.003-3.3161 3.8091-8.776 6.0614-16.38 6.7566s-14.087-0.3502-19.449-3.1389c-5.9933-3.1861-10.046-8.3482-12.158-15.487l-8.8332-29.86 17.828-1.6301 8.4201 28.464c0.6953 2.3502 1.9079 4.1973 3.6377 5.5412 1.7299 1.344 3.7787 1.9079 6.1466 1.6912 2.4597-0.2248 4.0776-1.2377 4.8535-3.0387 0.7379-1.6156 0.7399-3.6648 0-6.147l-8.243-27.865 17.691-1.6175z"/>
      <path id="path4168" d="m1297.5 1875.3c-4.3129 2.8081-9.2243 4.464-14.734 4.9678-8.0598 0.737-15.299-0.9691-21.717-5.1181-6.5948-4.2689-11.04-10.283-13.335-18.041-2.3346-7.8922-1.5076-14.502 2.4807-19.831 3.8602-5.1346 9.8883-8.0768 18.084-8.8262 4.5079-0.412 9.708 0.092 15.6 1.5128l4.5046 15.228c-4.7801-1.9306-9.151-2.7152-13.113-2.3529-3.8257 0.3498-6.6009 1.5603-8.326 3.6316-1.8815 2.1745-2.2844 5.0794-1.2089 8.715 1.0626 3.5922 3.1638 6.269 6.3038 8.0302 2.8599 1.6061 6.2021 2.2344 10.026 1.8847 3.6437-0.3331 7.3325-1.8543 11.067-4.5638z"/>
      <path id="path4170" d="m1339.2 1836.7-13.251 1.2115 10.82 36.576-17.691 1.6176-10.82-36.576-13.319 1.2178-3.9546-13.368 44.261-4.0468z"/>
      <path id="path4172" d="m1376.1 1870.9-17.69 1.6175-14.774-49.945 17.69-1.6174z"/>
      <path id="path4174" d="m1433.3 1839.7c2.3869 8.0694 1.7565 14.673-1.8917 19.81-3.6481 5.1375-9.6382 8.0872-17.97 8.849-8.2418 0.7535-15.559-0.8995-21.952-4.959-6.5807-4.226-11.045-10.307-13.392-18.242-2.3739-8.0248-1.6444-14.648 2.1885-19.871 3.7042-5.03 9.7222-7.926 18.054-8.6879 7.9681-0.7285 15.184 0.9797 21.648 5.1244 6.5952 4.2704 11.034 10.262 13.316 17.976zm-17.974 1.8476c-0.9178-3.1024-2.4262-5.5144-4.5254-7.236-2.3332-1.8808-5.0479-2.6796-8.144-2.3966-3.1877 0.2915-5.3155 1.556-6.3834 3.7937-0.9986 2.0034-1.0257 4.6017-0.081 7.7947 0.9181 3.1039 2.4273 5.5157 4.5274 7.2359 2.2416 1.8891 4.9104 2.6923 8.0064 2.4092 3.2795-0.2999 5.4664-1.5239 6.5606-3.6723 0.9969-2.0046 1.0101-4.6475 0.039-7.9286z"/>
      <path id="path4176" d="m1504.3 1859.1-16.53 1.5114-27.769-23.212 7.8943 25.029-17.895 1.6361-14.774-49.945 16.596-1.5175 27.86 23.272-7.9829-25.09 17.826-1.63z"/>
    </g>
  </g>
  <metadata>
    <rdf:RDF>
      <cc:Work>
        <dc:format>image/svg+xml</dc:format>
        <dc:type rdf:resource="http://purl.org/dc/dcmitype/StillImage"/>
        <cc:license rdf:resource="http://creativecommons.org/licenses/publicdomain/"/>
        <dc:publisher>
          <cc:Agent rdf:about="http://openclipart.org/">
            <dc:title>Openclipart</dc:title>
          </cc:Agent>
        </dc:publisher>
        <dc:title>UNDER CONSTRUCTION</dc:title>
        <dc:date>2010-07-31T20:25:56</dc:date>
        <dc:description>UNDER CONSTRUCTION CLIP ART</dc:description>
        <dc:source>https://openclipart.org/detail/75631/under-construction-by-inky2010-75631</dc:source>
        <dc:creator>
          <cc:Agent>
            <dc:title>inky2010</dc:title>
          </cc:Agent>
        </dc:creator>
        <dc:subject>
          <rdf:Bag>
            <rdf:li>CLIP ART</rdf:li>
            <rdf:li>CONSTRUCTION</rdf:li>
            <rdf:li>GLOSS</rdf:li>
            <rdf:li>INKY2010</rdf:li>
            <rdf:li>RED</rdf:li>
            <rdf:li>UNDER CONSTRUCTION</rdf:li>
          </rdf:Bag>
        </dc:subject>
      </cc:Work>
      <cc:License rdf:about="http://creativecommons.org/licenses/publicdomain/">
        <cc:permits rdf:resource="http://creativecommons.org/ns#Reproduction"/>
        <cc:permits rdf:resource="http://creativecommons.org/ns#Distribution"/>
        <cc:permits rdf:resource="http://creativecommons.org/ns#DerivativeWorks"/>
      </cc:License>
    </rdf:RDF>
  </metadata>
</svg>
